<mxfile host="app.diagrams.net" modified="2022-09-12T16:17:39.953Z" agent="5.0 (Macintosh; Intel Mac OS X 10_15_7) AppleWebKit/605.1.15 (KHTML, like Gecko) Version/15.2 Safari/605.1.15" etag="kN0Ri537BmqGvZDE06TI" version="20.3.0" type="github">
  <diagram id="A8DlTBA7ZRgL-MLAWeBW" name="Страница 1">
    <mxGraphModel dx="758" dy="541" grid="1" gridSize="10" guides="1" tooltips="1" connect="1" arrows="1" fold="1" page="1" pageScale="1" pageWidth="827" pageHeight="1169" math="0" shadow="0">
      <root>
        <mxCell id="0" />
        <mxCell id="1" parent="0" />
        <mxCell id="D19Pn-g9B-CILn4SW4ly-2" value="frame" style="shape=umlFrame;whiteSpace=wrap;html=1;" parent="1" vertex="1">
          <mxGeometry x="160" y="70" width="500" height="470" as="geometry" />
        </mxCell>
        <mxCell id="D19Pn-g9B-CILn4SW4ly-116" style="edgeStyle=orthogonalEdgeStyle;rounded=0;orthogonalLoop=1;jettySize=auto;html=1;fontSize=6;startArrow=none;startFill=0;endArrow=block;endFill=0;" parent="1" edge="1">
          <mxGeometry relative="1" as="geometry">
            <mxPoint x="744" y="470" as="targetPoint" />
            <mxPoint x="85" y="380" as="sourcePoint" />
            <Array as="points">
              <mxPoint x="85" y="570" />
              <mxPoint x="744" y="570" />
            </Array>
          </mxGeometry>
        </mxCell>
        <mxCell id="D19Pn-g9B-CILn4SW4ly-3" value="Скульптор-споживач" style="shape=umlActor;verticalLabelPosition=bottom;verticalAlign=top;html=1;" parent="1" vertex="1">
          <mxGeometry x="70" y="290" width="30" height="60" as="geometry" />
        </mxCell>
        <mxCell id="D19Pn-g9B-CILn4SW4ly-120" style="edgeStyle=orthogonalEdgeStyle;rounded=0;orthogonalLoop=1;jettySize=auto;html=1;fontSize=6;startArrow=none;startFill=0;endArrow=block;endFill=0;" parent="1" edge="1">
          <mxGeometry relative="1" as="geometry">
            <mxPoint x="80" y="70" as="targetPoint" />
            <mxPoint x="735" y="190" as="sourcePoint" />
            <Array as="points">
              <mxPoint x="735" y="40" />
              <mxPoint x="80" y="40" />
            </Array>
          </mxGeometry>
        </mxCell>
        <mxCell id="D19Pn-g9B-CILn4SW4ly-4" value="Робітник команди" style="shape=umlActor;verticalLabelPosition=bottom;verticalAlign=top;html=1;" parent="1" vertex="1">
          <mxGeometry x="720" y="200" width="30" height="60" as="geometry" />
        </mxCell>
        <mxCell id="D19Pn-g9B-CILn4SW4ly-6" value="Користувач" style="shape=umlActor;verticalLabelPosition=bottom;verticalAlign=top;html=1;" parent="1" vertex="1">
          <mxGeometry x="720" y="380" width="30" height="60" as="geometry" />
        </mxCell>
        <mxCell id="D19Pn-g9B-CILn4SW4ly-119" style="edgeStyle=orthogonalEdgeStyle;rounded=0;orthogonalLoop=1;jettySize=auto;html=1;fontSize=6;startArrow=none;startFill=0;endArrow=block;endFill=0;" parent="1" edge="1">
          <mxGeometry relative="1" as="geometry">
            <mxPoint x="85" y="270" as="targetPoint" />
            <mxPoint x="85" y="180" as="sourcePoint" />
          </mxGeometry>
        </mxCell>
        <mxCell id="D19Pn-g9B-CILn4SW4ly-27" value="Робітник" style="shape=umlActor;verticalLabelPosition=bottom;verticalAlign=top;html=1;" parent="1" vertex="1">
          <mxGeometry x="70" y="85" width="30" height="60" as="geometry" />
        </mxCell>
        <mxCell id="D19Pn-g9B-CILn4SW4ly-126" style="edgeStyle=orthogonalEdgeStyle;rounded=0;orthogonalLoop=1;jettySize=auto;html=1;exitX=0.5;exitY=1;exitDx=0;exitDy=0;dashed=1;fontSize=6;startArrow=none;startFill=0;endArrow=openThin;endFill=0;" parent="1" source="D19Pn-g9B-CILn4SW4ly-67" edge="1">
          <mxGeometry relative="1" as="geometry">
            <mxPoint x="200" y="250" as="targetPoint" />
            <Array as="points">
              <mxPoint x="324" y="210" />
              <mxPoint x="200" y="210" />
            </Array>
          </mxGeometry>
        </mxCell>
        <mxCell id="D19Pn-g9B-CILn4SW4ly-67" value="Створювати мудборди" style="ellipse;whiteSpace=wrap;html=1;align=center;fontSize=9;" parent="1" vertex="1">
          <mxGeometry x="234" y="170" width="180" height="30" as="geometry" />
        </mxCell>
        <mxCell id="D19Pn-g9B-CILn4SW4ly-125" style="edgeStyle=orthogonalEdgeStyle;rounded=0;orthogonalLoop=1;jettySize=auto;html=1;exitX=0.5;exitY=1;exitDx=0;exitDy=0;dashed=1;fontSize=6;startArrow=none;startFill=0;endArrow=openThin;endFill=0;" parent="1" source="D19Pn-g9B-CILn4SW4ly-68" edge="1">
          <mxGeometry relative="1" as="geometry">
            <mxPoint x="200" y="300" as="targetPoint" />
            <Array as="points">
              <mxPoint x="324" y="260" />
              <mxPoint x="200" y="260" />
            </Array>
          </mxGeometry>
        </mxCell>
        <mxCell id="D19Pn-g9B-CILn4SW4ly-68" value="Публікувати роботи та статті" style="ellipse;whiteSpace=wrap;html=1;align=center;fontSize=9;" parent="1" vertex="1">
          <mxGeometry x="234" y="220" width="180" height="30" as="geometry" />
        </mxCell>
        <mxCell id="D19Pn-g9B-CILn4SW4ly-124" style="edgeStyle=orthogonalEdgeStyle;rounded=0;orthogonalLoop=1;jettySize=auto;html=1;exitX=0.5;exitY=1;exitDx=0;exitDy=0;dashed=1;fontSize=6;startArrow=none;startFill=0;endArrow=openThin;endFill=0;" parent="1" source="D19Pn-g9B-CILn4SW4ly-69" edge="1">
          <mxGeometry relative="1" as="geometry">
            <mxPoint x="200" y="350" as="targetPoint" />
            <Array as="points">
              <mxPoint x="324" y="310" />
              <mxPoint x="200" y="310" />
            </Array>
          </mxGeometry>
        </mxCell>
        <mxCell id="D19Pn-g9B-CILn4SW4ly-69" value="Спостерігати за вологістю" style="ellipse;whiteSpace=wrap;html=1;align=center;fontSize=9;" parent="1" vertex="1">
          <mxGeometry x="234" y="270" width="180" height="30" as="geometry" />
        </mxCell>
        <mxCell id="D19Pn-g9B-CILn4SW4ly-123" style="edgeStyle=orthogonalEdgeStyle;rounded=0;orthogonalLoop=1;jettySize=auto;html=1;dashed=1;fontSize=6;startArrow=none;startFill=0;endArrow=openThin;endFill=0;exitX=0.5;exitY=1;exitDx=0;exitDy=0;" parent="1" source="D19Pn-g9B-CILn4SW4ly-70" edge="1">
          <mxGeometry relative="1" as="geometry">
            <mxPoint x="200" y="400" as="targetPoint" />
            <Array as="points">
              <mxPoint x="324" y="360" />
              <mxPoint x="200" y="360" />
            </Array>
          </mxGeometry>
        </mxCell>
        <mxCell id="D19Pn-g9B-CILn4SW4ly-70" value="Фіксувати зміни показників" style="ellipse;whiteSpace=wrap;html=1;align=center;fontSize=9;" parent="1" vertex="1">
          <mxGeometry x="234" y="320" width="180" height="30" as="geometry" />
        </mxCell>
        <mxCell id="D19Pn-g9B-CILn4SW4ly-122" style="edgeStyle=orthogonalEdgeStyle;rounded=0;orthogonalLoop=1;jettySize=auto;html=1;fontSize=6;startArrow=none;startFill=0;endArrow=openThin;endFill=0;dashed=1;exitX=0.5;exitY=1;exitDx=0;exitDy=0;" parent="1" source="D19Pn-g9B-CILn4SW4ly-71" edge="1">
          <mxGeometry relative="1" as="geometry">
            <mxPoint x="200" y="430" as="targetPoint" />
            <Array as="points">
              <mxPoint x="324" y="410" />
              <mxPoint x="200" y="410" />
            </Array>
          </mxGeometry>
        </mxCell>
        <mxCell id="D19Pn-g9B-CILn4SW4ly-71" value="Відправляти зміни показників" style="ellipse;whiteSpace=wrap;html=1;align=center;fontSize=9;" parent="1" vertex="1">
          <mxGeometry x="234" y="370" width="180" height="30" as="geometry" />
        </mxCell>
        <mxCell id="D19Pn-g9B-CILn4SW4ly-95" style="edgeStyle=orthogonalEdgeStyle;rounded=0;orthogonalLoop=1;jettySize=auto;html=1;dashed=1;fontSize=9;startArrow=none;startFill=0;endArrow=openThin;endFill=0;exitX=0;exitY=0.5;exitDx=0;exitDy=0;" parent="1" source="D19Pn-g9B-CILn4SW4ly-72" edge="1">
          <mxGeometry relative="1" as="geometry">
            <mxPoint x="450" y="440" as="targetPoint" />
            <Array as="points">
              <mxPoint x="200" y="435" />
              <mxPoint x="200" y="520" />
              <mxPoint x="470" y="520" />
              <mxPoint x="470" y="450" />
            </Array>
          </mxGeometry>
        </mxCell>
        <mxCell id="D19Pn-g9B-CILn4SW4ly-72" value="Задавати технічні запитання" style="ellipse;whiteSpace=wrap;html=1;align=center;fontSize=9;" parent="1" vertex="1">
          <mxGeometry x="234" y="420" width="180" height="30" as="geometry" />
        </mxCell>
        <mxCell id="D19Pn-g9B-CILn4SW4ly-94" style="edgeStyle=orthogonalEdgeStyle;rounded=0;orthogonalLoop=1;jettySize=auto;html=1;entryX=0;entryY=0.5;entryDx=0;entryDy=0;dashed=1;fontSize=9;startArrow=none;startFill=0;endArrow=openThin;endFill=0;exitX=1;exitY=0.5;exitDx=0;exitDy=0;" parent="1" source="D19Pn-g9B-CILn4SW4ly-73" target="D19Pn-g9B-CILn4SW4ly-77" edge="1">
          <mxGeometry relative="1" as="geometry">
            <Array as="points">
              <mxPoint x="440" y="485" />
              <mxPoint x="440" y="435" />
            </Array>
          </mxGeometry>
        </mxCell>
        <mxCell id="D19Pn-g9B-CILn4SW4ly-73" value="Отримувати технічні відповіді" style="ellipse;whiteSpace=wrap;html=1;align=center;fontSize=9;" parent="1" vertex="1">
          <mxGeometry x="234" y="470" width="180" height="30" as="geometry" />
        </mxCell>
        <mxCell id="D19Pn-g9B-CILn4SW4ly-127" style="edgeStyle=orthogonalEdgeStyle;rounded=0;orthogonalLoop=1;jettySize=auto;html=1;dashed=1;fontSize=6;startArrow=none;startFill=0;endArrow=openThin;endFill=0;" parent="1" source="D19Pn-g9B-CILn4SW4ly-74" edge="1">
          <mxGeometry relative="1" as="geometry">
            <mxPoint x="450" y="430" as="targetPoint" />
            <Array as="points">
              <mxPoint x="650" y="115" />
              <mxPoint x="650" y="360" />
              <mxPoint x="450" y="360" />
              <mxPoint x="450" y="430" />
            </Array>
          </mxGeometry>
        </mxCell>
        <mxCell id="D19Pn-g9B-CILn4SW4ly-74" value="Отримувати зміни показників" style="ellipse;whiteSpace=wrap;html=1;align=center;fontSize=9;" parent="1" vertex="1">
          <mxGeometry x="234" y="100" width="180" height="30" as="geometry" />
        </mxCell>
        <mxCell id="D19Pn-g9B-CILn4SW4ly-128" style="edgeStyle=orthogonalEdgeStyle;rounded=0;orthogonalLoop=1;jettySize=auto;html=1;exitX=0.5;exitY=0;exitDx=0;exitDy=0;entryX=0.5;entryY=1;entryDx=0;entryDy=0;dashed=1;fontSize=6;startArrow=none;startFill=0;endArrow=openThin;endFill=0;" parent="1" source="D19Pn-g9B-CILn4SW4ly-75" target="D19Pn-g9B-CILn4SW4ly-74" edge="1">
          <mxGeometry relative="1" as="geometry">
            <Array as="points">
              <mxPoint x="550" y="150" />
              <mxPoint x="324" y="150" />
            </Array>
          </mxGeometry>
        </mxCell>
        <mxCell id="D19Pn-g9B-CILn4SW4ly-130" style="edgeStyle=orthogonalEdgeStyle;rounded=0;orthogonalLoop=1;jettySize=auto;html=1;dashed=1;fontSize=6;startArrow=none;startFill=0;endArrow=openThin;endFill=0;entryX=0.5;entryY=0;entryDx=0;entryDy=0;" parent="1" source="D19Pn-g9B-CILn4SW4ly-75" target="D19Pn-g9B-CILn4SW4ly-73" edge="1">
          <mxGeometry relative="1" as="geometry">
            <Array as="points">
              <mxPoint x="430" y="235" />
              <mxPoint x="430" y="460" />
              <mxPoint x="324" y="460" />
            </Array>
          </mxGeometry>
        </mxCell>
        <mxCell id="D19Pn-g9B-CILn4SW4ly-133" style="edgeStyle=orthogonalEdgeStyle;rounded=0;orthogonalLoop=1;jettySize=auto;html=1;entryX=1;entryY=0.5;entryDx=0;entryDy=0;dashed=1;fontSize=6;startArrow=none;startFill=0;endArrow=openThin;endFill=0;" parent="1" source="D19Pn-g9B-CILn4SW4ly-75" target="D19Pn-g9B-CILn4SW4ly-72" edge="1">
          <mxGeometry relative="1" as="geometry">
            <Array as="points">
              <mxPoint x="430" y="235" />
              <mxPoint x="430" y="435" />
            </Array>
          </mxGeometry>
        </mxCell>
        <mxCell id="D19Pn-g9B-CILn4SW4ly-134" style="edgeStyle=orthogonalEdgeStyle;rounded=0;orthogonalLoop=1;jettySize=auto;html=1;entryX=1;entryY=0.5;entryDx=0;entryDy=0;dashed=1;fontSize=6;startArrow=none;startFill=0;endArrow=openThin;endFill=0;" parent="1" source="D19Pn-g9B-CILn4SW4ly-75" target="D19Pn-g9B-CILn4SW4ly-71" edge="1">
          <mxGeometry relative="1" as="geometry">
            <Array as="points">
              <mxPoint x="430" y="235" />
              <mxPoint x="430" y="385" />
            </Array>
          </mxGeometry>
        </mxCell>
        <mxCell id="D19Pn-g9B-CILn4SW4ly-75" value="&lt;font style=&quot;font-size: 9px;&quot;&gt;Online-повідомлення / друкована документація&lt;/font&gt;" style="ellipse;whiteSpace=wrap;html=1;align=center;fontSize=9;" parent="1" vertex="1">
          <mxGeometry x="460" y="220" width="180" height="30" as="geometry" />
        </mxCell>
        <mxCell id="D19Pn-g9B-CILn4SW4ly-77" value="&lt;font style=&quot;font-size: 9px;&quot;&gt;Авторизувати користувача&lt;/font&gt;" style="ellipse;whiteSpace=wrap;html=1;align=center;fontSize=9;" parent="1" vertex="1">
          <mxGeometry x="470" y="420" width="180" height="30" as="geometry" />
        </mxCell>
        <mxCell id="D19Pn-g9B-CILn4SW4ly-78" value="&lt;font style=&quot;font-size: 9px;&quot;&gt;Створити обліковий запис&lt;/font&gt;" style="ellipse;whiteSpace=wrap;html=1;align=center;fontSize=9;" parent="1" vertex="1">
          <mxGeometry x="470" y="380" width="180" height="30" as="geometry" />
        </mxCell>
        <mxCell id="D19Pn-g9B-CILn4SW4ly-80" value="" style="endArrow=none;html=1;rounded=0;fontSize=9;entryX=0;entryY=0.5;entryDx=0;entryDy=0;" parent="1" target="D19Pn-g9B-CILn4SW4ly-67" edge="1">
          <mxGeometry relative="1" as="geometry">
            <mxPoint x="140" y="290" as="sourcePoint" />
            <mxPoint x="320" y="269.17" as="targetPoint" />
          </mxGeometry>
        </mxCell>
        <mxCell id="D19Pn-g9B-CILn4SW4ly-82" value="" style="endArrow=none;html=1;rounded=0;fontSize=9;entryX=0;entryY=0.5;entryDx=0;entryDy=0;" parent="1" target="D19Pn-g9B-CILn4SW4ly-68" edge="1">
          <mxGeometry relative="1" as="geometry">
            <mxPoint x="140" y="300" as="sourcePoint" />
            <mxPoint x="320" y="280" as="targetPoint" />
          </mxGeometry>
        </mxCell>
        <mxCell id="D19Pn-g9B-CILn4SW4ly-83" value="" style="endArrow=none;html=1;rounded=0;fontSize=9;entryX=0;entryY=0.5;entryDx=0;entryDy=0;" parent="1" target="D19Pn-g9B-CILn4SW4ly-69" edge="1">
          <mxGeometry relative="1" as="geometry">
            <mxPoint x="140" y="310" as="sourcePoint" />
            <mxPoint x="330" y="300" as="targetPoint" />
          </mxGeometry>
        </mxCell>
        <mxCell id="D19Pn-g9B-CILn4SW4ly-84" value="" style="endArrow=none;html=1;rounded=0;fontSize=9;entryX=0;entryY=0.5;entryDx=0;entryDy=0;" parent="1" target="D19Pn-g9B-CILn4SW4ly-70" edge="1">
          <mxGeometry relative="1" as="geometry">
            <mxPoint x="140" y="320" as="sourcePoint" />
            <mxPoint x="300" y="314.66" as="targetPoint" />
          </mxGeometry>
        </mxCell>
        <mxCell id="D19Pn-g9B-CILn4SW4ly-85" value="" style="endArrow=none;html=1;rounded=0;fontSize=9;entryX=0;entryY=0.5;entryDx=0;entryDy=0;" parent="1" target="D19Pn-g9B-CILn4SW4ly-71" edge="1">
          <mxGeometry relative="1" as="geometry">
            <mxPoint x="140" y="330" as="sourcePoint" />
            <mxPoint x="300" y="330" as="targetPoint" />
          </mxGeometry>
        </mxCell>
        <mxCell id="D19Pn-g9B-CILn4SW4ly-87" value="" style="endArrow=none;html=1;rounded=0;fontSize=9;entryX=0;entryY=0.5;entryDx=0;entryDy=0;" parent="1" target="D19Pn-g9B-CILn4SW4ly-72" edge="1">
          <mxGeometry relative="1" as="geometry">
            <mxPoint x="140" y="340" as="sourcePoint" />
            <mxPoint x="300" y="340" as="targetPoint" />
          </mxGeometry>
        </mxCell>
        <mxCell id="D19Pn-g9B-CILn4SW4ly-88" value="" style="endArrow=none;html=1;rounded=0;fontSize=9;entryX=0;entryY=0.5;entryDx=0;entryDy=0;" parent="1" target="D19Pn-g9B-CILn4SW4ly-73" edge="1">
          <mxGeometry relative="1" as="geometry">
            <mxPoint x="140" y="350" as="sourcePoint" />
            <mxPoint x="300" y="350" as="targetPoint" />
          </mxGeometry>
        </mxCell>
        <mxCell id="D19Pn-g9B-CILn4SW4ly-89" value="" style="endArrow=none;html=1;rounded=0;fontSize=9;entryX=0;entryY=0.5;entryDx=0;entryDy=0;" parent="1" target="D19Pn-g9B-CILn4SW4ly-74" edge="1">
          <mxGeometry relative="1" as="geometry">
            <mxPoint x="110" y="115" as="sourcePoint" />
            <mxPoint x="260" y="494.5" as="targetPoint" />
          </mxGeometry>
        </mxCell>
        <mxCell id="D19Pn-g9B-CILn4SW4ly-90" value="" style="endArrow=none;html=1;rounded=0;fontSize=9;exitX=1;exitY=0.5;exitDx=0;exitDy=0;" parent="1" source="D19Pn-g9B-CILn4SW4ly-75" edge="1">
          <mxGeometry relative="1" as="geometry">
            <mxPoint x="630" y="234.5" as="sourcePoint" />
            <mxPoint x="710" y="235" as="targetPoint" />
          </mxGeometry>
        </mxCell>
        <mxCell id="D19Pn-g9B-CILn4SW4ly-91" value="" style="endArrow=none;html=1;rounded=0;fontSize=9;exitX=1;exitY=0.5;exitDx=0;exitDy=0;" parent="1" source="D19Pn-g9B-CILn4SW4ly-78" edge="1">
          <mxGeometry relative="1" as="geometry">
            <mxPoint x="440" y="370" as="sourcePoint" />
            <mxPoint x="710" y="410" as="targetPoint" />
          </mxGeometry>
        </mxCell>
        <mxCell id="D19Pn-g9B-CILn4SW4ly-92" value="" style="endArrow=none;html=1;rounded=0;fontSize=9;exitX=1;exitY=0.5;exitDx=0;exitDy=0;" parent="1" source="D19Pn-g9B-CILn4SW4ly-77" edge="1">
          <mxGeometry relative="1" as="geometry">
            <mxPoint x="440" y="370" as="sourcePoint" />
            <mxPoint x="710" y="420" as="targetPoint" />
          </mxGeometry>
        </mxCell>
        <mxCell id="D19Pn-g9B-CILn4SW4ly-103" value="&lt;&lt;include&gt;&gt;" style="text;strokeColor=none;fillColor=none;spacingLeft=4;spacingRight=4;overflow=hidden;rotatable=0;points=[[0,0.5],[1,0.5]];portConstraint=eastwest;fontSize=10;" parent="1" vertex="1">
          <mxGeometry x="220" y="190" width="70" height="20" as="geometry" />
        </mxCell>
        <mxCell id="D19Pn-g9B-CILn4SW4ly-104" value="&lt;&lt;include&gt;&gt;" style="text;strokeColor=none;fillColor=none;spacingLeft=4;spacingRight=4;overflow=hidden;rotatable=0;points=[[0,0.5],[1,0.5]];portConstraint=eastwest;fontSize=10;" parent="1" vertex="1">
          <mxGeometry x="210" y="240" width="70" height="20" as="geometry" />
        </mxCell>
        <mxCell id="D19Pn-g9B-CILn4SW4ly-106" value="&lt;&lt;include&gt;&gt;" style="text;strokeColor=none;fillColor=none;spacingLeft=4;spacingRight=4;overflow=hidden;rotatable=0;points=[[0,0.5],[1,0.5]];portConstraint=eastwest;fontSize=10;" parent="1" vertex="1">
          <mxGeometry x="210" y="290" width="70" height="20" as="geometry" />
        </mxCell>
        <mxCell id="D19Pn-g9B-CILn4SW4ly-107" value="&lt;&lt;include&gt;&gt;" style="text;strokeColor=none;fillColor=none;spacingLeft=4;spacingRight=4;overflow=hidden;rotatable=0;points=[[0,0.5],[1,0.5]];portConstraint=eastwest;fontSize=10;" parent="1" vertex="1">
          <mxGeometry x="210" y="340" width="70" height="20" as="geometry" />
        </mxCell>
        <mxCell id="D19Pn-g9B-CILn4SW4ly-108" value="&lt;&lt;include&gt;&gt;" style="text;strokeColor=none;fillColor=none;spacingLeft=4;spacingRight=4;overflow=hidden;rotatable=0;points=[[0,0.5],[1,0.5]];portConstraint=eastwest;fontSize=10;" parent="1" vertex="1">
          <mxGeometry x="210" y="390" width="80" height="20" as="geometry" />
        </mxCell>
        <mxCell id="D19Pn-g9B-CILn4SW4ly-109" value="&lt;&lt;include&gt;&gt;" style="text;strokeColor=none;fillColor=none;spacingLeft=4;spacingRight=4;overflow=hidden;rotatable=0;points=[[0,0.5],[1,0.5]];portConstraint=eastwest;fontSize=10;" parent="1" vertex="1">
          <mxGeometry x="299" y="500" width="71" height="20" as="geometry" />
        </mxCell>
        <mxCell id="D19Pn-g9B-CILn4SW4ly-110" value="&lt;&lt;include&gt;&gt;" style="text;strokeColor=none;fillColor=none;spacingLeft=4;spacingRight=4;overflow=hidden;rotatable=0;points=[[0,0.5],[1,0.5]];portConstraint=eastwest;fontSize=10;" parent="1" vertex="1">
          <mxGeometry x="398" y="459" width="70" height="20" as="geometry" />
        </mxCell>
        <mxCell id="D19Pn-g9B-CILn4SW4ly-112" value="&lt;&lt;include&gt;&gt;" style="text;strokeColor=none;fillColor=none;spacingLeft=4;spacingRight=4;overflow=hidden;rotatable=0;points=[[0,0.5],[1,0.5]];portConstraint=eastwest;fontSize=10;" parent="1" vertex="1">
          <mxGeometry x="520" y="95" width="70" height="30" as="geometry" />
        </mxCell>
        <mxCell id="D19Pn-g9B-CILn4SW4ly-129" value="&lt;&lt;extend&gt;&gt;" style="text;strokeColor=none;fillColor=none;spacingLeft=4;spacingRight=4;overflow=hidden;rotatable=0;points=[[0,0.5],[1,0.5]];portConstraint=eastwest;fontSize=10;" parent="1" vertex="1">
          <mxGeometry x="410" y="130" width="70" height="25" as="geometry" />
        </mxCell>
        <mxCell id="D19Pn-g9B-CILn4SW4ly-132" value="&lt;&lt;extend&gt;&gt;" style="text;strokeColor=none;fillColor=none;spacingLeft=4;spacingRight=4;overflow=hidden;rotatable=0;points=[[0,0.5],[1,0.5]];portConstraint=eastwest;fontSize=10;" parent="1" vertex="1">
          <mxGeometry x="420" y="290" width="70" height="20" as="geometry" />
        </mxCell>
      </root>
    </mxGraphModel>
  </diagram>
</mxfile>
